<?xml version="1.0" encoding="iso-8859-1"?>
<!-- Generator: Adobe Illustrator 19.1.0, SVG Export Plug-In . SVG Version: 6.00 Build 0)  -->
<svg version="1.1" id="Capa_1" xmlns="http://www.w3.org/2000/svg" xmlns:xlink="http://www.w3.org/1999/xlink" x="0px" y="0px"
	 viewBox="0 0 402.177 402.177" style="enable-background:new 0 0 402.177 402.177;" xml:space="preserve">
<g>
	<path style="fill:#A9D8C8;" d="M92.999,125.042l-9.322-41.075c-6.468,13.622-16.92,38.258-25.812,71.319
		c-12.664,47.087-24.612,121.219-10.394,208.604h34.881l8.648-17.978c0,0-1.987-8.77-2.008-8.978
		C87.57,329.056,68.502,219.039,92.999,125.042z"/>
	<polygon style="fill:#8EB6CA;" points="49.657,378.033 79.178,378.033 79.762,373.891 49.048,373.891 	"/>
	<polygon style="fill:#8EB6CA;" points="101.279,346.003 196.088,346.003 196.088,341.444 100.237,341.444 	"/>
	<polygon style="fill:#8EB6CA;" points="104.607,360.564 196.088,360.564 196.088,356.003 103.564,356.003 	"/>
	<path style="fill:#CBE8DE;" d="M133.43,59.798c9.827,8.754,31.222,10.1,45.28,9.658c-7.982-9.934-19.029-25.164-19.029-33.384
		c0-12.598,14.705-19.536,41.407-19.536s41.407,6.938,41.407,19.536c0,8.22-11.047,23.45-19.03,33.384
		c14.058,0.442,35.454-0.904,45.281-9.658c3.611-3.218,5.367-7.19,5.367-12.142c0-22.172-30.029-37.656-73.025-37.656
		s-73.025,15.484-73.025,37.656C128.063,52.608,129.819,56.58,133.43,59.798z"/>
	<path style="fill:#A9D8C8;" d="M98.197,331.444h97.892V130.129h-94.064C80.91,214.153,94.781,310.66,98.197,331.444z
		 M106.567,287.147l15.809-74.044c0.576-2.7,3.236-4.424,5.934-3.846c2.7,0.576,4.423,3.233,3.846,5.934l-15.809,74.044
		c-0.501,2.349-2.601,4.609-5.934,3.846C107.721,292.464,105.99,289.848,106.567,287.147z"/>
	<path style="fill:#8EB6CA;" d="M216.38,79.074l-10.292,21.235v19.819h93.95l11.158-49.169c-3.758-3.541-13.529-11.617-28.047-15.94
		c-1.292,4.696-3.883,8.801-7.761,12.253C259.842,81.113,227.261,79.911,216.38,79.074z"/>
	<path style="fill:#A9D8C8;" d="M201.088,26.536c-18.492,0-31.407,3.922-31.407,9.536c0,2.679,3.5,8.837,8.458,15.938h45.898
		c4.958-7.102,8.458-13.26,8.458-15.938C232.496,30.458,219.581,26.536,201.088,26.536z"/>
	<polygon style="fill:#8EB6CA;" points="51.737,392.177 77.184,392.177 77.768,388.033 51.127,388.033 	"/>
	<polygon style="fill:#8EB6CA;" points="322.999,378.033 352.52,378.033 353.128,373.891 322.415,373.891 	"/>
	<polygon style="fill:#8EB6CA;" points="324.993,392.177 350.44,392.177 351.049,388.033 324.409,388.033 	"/>
	<path style="fill:#A9D8C8;" d="M300.153,130.129h-94.064v201.315h97.892C307.396,310.66,321.267,214.153,300.153,130.129z
		 M291.764,293.081c-2.931,0.686-5.433-1.497-5.934-3.846l-15.809-74.044c-0.577-2.7,1.146-5.357,3.846-5.934
		c2.697-0.578,5.357,1.146,5.934,3.846l15.809,74.044C296.187,289.848,294.453,292.452,291.764,293.081z"/>
	<path style="fill:#A9D8C8;" d="M318.501,83.958l-9.324,41.084c24.498,93.997,5.43,204.014,4.007,211.893
		c-0.021,0.209-2.008,8.978-2.008,8.978l8.647,17.978h34.881c14.243-87.545,2.232-161.805-10.491-208.965
		C335.328,121.988,324.939,97.511,318.501,83.958z"/>
	<polygon style="fill:#8EB6CA;" points="206.088,346.003 300.898,346.003 301.94,341.444 206.088,341.444 	"/>
	<path style="fill:#BBD3DF;" d="M209.574,70.5c2.34-2.697,4.717-5.577,7.014-8.489h-30.998c2.297,2.912,4.674,5.792,7.014,8.489
		c0.402,0.463,0.688,0.983,0.891,1.526l7.595,15.672l7.595-15.672C208.886,71.483,209.171,70.963,209.574,70.5z"/>
	<polygon style="fill:#8EB6CA;" points="206.088,360.564 297.57,360.564 298.613,356.003 206.088,356.003 	"/>
	<path style="fill:#8EB6CA;" d="M126.788,67.272c-3.878-3.452-6.468-7.557-7.761-12.252c-14.599,4.334-24.312,12.385-28.049,15.929
		l11.16,49.18h93.95V100.31l-10.292-21.235C174.915,79.91,142.333,81.112,126.788,67.272z"/>
	<path style="fill:#3F352F;" d="M110.413,293.081c3.333,0.764,5.433-1.497,5.934-3.846l15.809-74.044
		c0.577-2.7-1.146-5.357-3.846-5.934c-2.697-0.578-5.357,1.146-5.934,3.846l-15.809,74.044
		C105.99,289.848,107.721,292.464,110.413,293.081z"/>
	<path style="fill:#3F352F;" d="M279.801,213.104c-0.576-2.7-3.236-4.424-5.934-3.846c-2.7,0.576-4.423,3.233-3.846,5.934
		l15.809,74.044c0.501,2.349,3.003,4.531,5.934,3.846c2.689-0.629,4.423-3.233,3.846-5.934L279.801,213.104z"/>
	<path style="fill:#3F352F;" d="M320.434,66.086c-0.567-0.646-13.501-15.083-36.436-21.237C281.874,17.901,249.099,0,201.088,0
		s-80.784,17.901-82.909,44.849C95.244,51.003,82.31,65.44,81.743,66.086c-0.22,0.249-19.119,33.175-33.435,86.235
		C35.123,201.196,22.684,278.59,38.31,369.735c0.01,0.054,4.162,28.169,4.162,28.169c0.36,2.454,2.466,4.272,4.946,4.272h34.11
		c2.492,0,4.604-1.835,4.951-4.302l3.889-27.578l4.206-8.745l1.172,5.126c0.52,2.273,2.542,3.886,4.874,3.886h200.936
		c2.332,0,4.354-1.612,4.874-3.886l1.172-5.126l4.206,8.745l3.889,27.578c0.348,2.467,2.459,4.302,4.951,4.302h34.11
		c2.48,0,4.586-1.818,4.946-4.272c0,0,4.152-28.115,4.162-28.169c15.626-91.146,3.188-168.539-9.998-217.414
		C339.553,99.261,320.654,66.335,320.434,66.086z M283.15,55.02c14.518,4.323,24.289,12.399,28.047,15.94l-11.158,49.169h-93.95
		V100.31l10.292-21.235c10.881,0.837,43.462,2.039,59.009-11.802C279.267,63.82,281.858,59.716,283.15,55.02z M201.088,10
		c42.996,0,73.025,15.484,73.025,37.656c0,4.952-1.756,8.924-5.367,12.142c-9.827,8.754-31.224,10.101-45.281,9.658
		c7.983-9.934,19.03-25.164,19.03-33.384c0-12.598-14.705-19.536-41.407-19.536s-41.407,6.938-41.407,19.536
		c0,8.22,11.047,23.45,19.029,33.384c-14.059,0.441-35.453-0.904-45.28-9.658c-3.611-3.218-5.367-7.19-5.367-12.142
		C128.063,25.484,158.092,10,201.088,10z M178.139,52.011c-4.958-7.102-8.458-13.26-8.458-15.938c0-5.614,12.915-9.536,31.407-9.536
		s31.407,3.922,31.407,9.536c0,2.679-3.5,8.837-8.458,15.938H178.139z M77.184,392.177H51.737l-0.609-4.144h26.641L77.184,392.177z
		 M79.178,378.033H49.657l-0.608-4.143h30.714L79.178,378.033z M82.353,363.891H47.472c-14.219-87.386-2.271-161.518,10.394-208.604
		c8.892-33.062,19.344-57.697,25.812-71.319l9.322,41.075c-24.498,93.997-5.43,204.014-4.007,211.893
		c0.021,0.209,2.008,8.978,2.008,8.978L82.353,363.891z M196.088,360.564h-91.481l-1.043-4.561h92.524V360.564z M196.088,346.003
		h-94.81l-1.042-4.559h95.852V346.003z M196.088,331.444H98.197c-3.416-20.784-17.287-117.291,3.827-201.315h94.064V331.444z
		 M196.088,120.129h-93.95l-11.16-49.18c3.736-3.544,13.45-11.595,28.049-15.929c1.293,4.695,3.883,8.8,7.761,12.252
		c15.546,13.84,48.127,12.638,59.009,11.802l10.292,21.235V120.129z M193.494,72.026c-0.203-0.543-0.488-1.063-0.891-1.526
		c-2.34-2.697-4.717-5.577-7.014-8.489h30.998c-2.297,2.912-4.674,5.792-7.014,8.489c-0.402,0.463-0.688,0.983-0.891,1.526
		l-7.595,15.672L193.494,72.026z M297.57,360.564h-91.481v-4.561h92.524L297.57,360.564z M300.898,346.003h-94.81v-4.559h95.852
		L300.898,346.003z M303.98,331.444h-97.892V130.129h94.064C321.267,214.153,307.396,310.66,303.98,331.444z M350.44,392.177
		h-25.447l-0.584-4.144h26.641L350.44,392.177z M352.52,378.033h-29.521l-0.584-4.143h30.714L352.52,378.033z M354.705,363.891
		h-34.881l-8.647-17.978c0,0,1.987-8.77,2.008-8.978c1.423-7.879,20.491-117.896-4.007-211.893l9.324-41.084
		c6.438,13.553,16.826,38.03,25.712,70.968C356.937,202.086,368.948,276.346,354.705,363.891z"/>
</g>
<g>
</g>
<g>
</g>
<g>
</g>
<g>
</g>
<g>
</g>
<g>
</g>
<g>
</g>
<g>
</g>
<g>
</g>
<g>
</g>
<g>
</g>
<g>
</g>
<g>
</g>
<g>
</g>
<g>
</g>
</svg>
